<svg xmlns="http://www.w3.org/2000/svg" xmlns:xlink="http://www.w3.org/1999/xlink" viewBox="0 0 400 400" width="400" height="400" preserveAspectRatio="xMidYMid meet" style="width: 100%; height: 100%; transform: translate3d(0px, 0px, 0px); content-visibility: visible;" id="Male Avatar"><defs><clipPath id="__lottie_element_516"><rect width="400" height="400" x="0" y="0"/></clipPath><clipPath id="__lottie_element_521"><path fill="#ffffff" clip-rule="nonzero" d=" M17.405000686645508,203.98599243164062 C17.405000686645508,304.8299865722656 99.15499877929688,386.58099365234375 200,386.58099365234375 C300.843994140625,386.58099365234375 382.5950012207031,304.8299865722656 382.5950012207031,203.98599243164062 C382.5950012207031,103.14099884033203 300.843994140625,21.392000198364258 200,21.392000198364258 C99.15499877929688,21.392000198364258 17.405000686645508,103.14099884033203 17.405000686645508,203.98599243164062" fill-opacity="1"/></clipPath></defs><g clip-path="url(#__lottie_element_516)"><g transform="matrix(1.2104899883270264,0,0,1.2104899883270264,200,200)" opacity="1" style="display: block;"><g opacity="1" transform="matrix(1,0,0,1,0,0)"><path fill="rgb(255,255,255)" fill-opacity="1" d=" M165.2220001220703,0 C165.2220001220703,91.2490005493164 91.2490005493164,165.2220001220703 -0.0010000000474974513,165.2220001220703 C-91.25,165.2220001220703 -165.2220001220703,91.2490005493164 -165.2220001220703,0 C-165.2220001220703,-91.2490005493164 -91.25,-165.2220001220703 -0.0010000000474974513,-165.2220001220703 C91.2490005493164,-165.2220001220703 165.2220001220703,-91.2490005493164 165.2220001220703,0z"/></g></g><g clip-path="url(#__lottie_element_521)" transform="matrix(0.9700000286102295,0,0,0.9700000286102295,7.000885009765625,-3.79290771484375)" opacity="1" style="display: block;"><g opacity="1" transform="matrix(1,0,0,1,0,1.768280029296875)"><g opacity="1" transform="matrix(1,0,0,1,0,0)"><g opacity="1" transform="matrix(1,0,0,1,326.927001953125,371.0979919433594)"><path fill="rgb(140,165,209)" fill-opacity="1" d=" M-17.982999801635742,-93.04499816894531 C-14.644000053405762,-92.90699768066406 -5.49399995803833,-89.84500122070312 7.88700008392334,-64.55699920654297 C24.975000381469727,-32.26599884033203 49.948001861572266,65.28299713134766 49.948001861572266,65.28299713134766 C49.948001861572266,65.28299713134766 -24.597999572753906,93.04499816894531 -24.597999572753906,93.04499816894531 C-24.597999572753906,93.04499816894531 -34.17399978637695,72.68399810791016 -34.17399978637695,72.68399810791016 C-34.17399978637695,72.68399810791016 -49.948001861572266,-84.06800079345703 -49.948001861572266,-84.06800079345703 C-49.948001861572266,-84.06800079345703 -18.908000946044922,-93.08300018310547 -17.982999801635742,-93.04499816894531z"/></g><g opacity="1" transform="matrix(1,0,0,1,195.93299865722656,461.5299987792969)"><path fill="rgb(70,110,182)" fill-opacity="1" d=" M14.470999717712402,-197.53700256347656 C35.7869987487793,-197.50999450683594 88.52899932861328,-191.29100036621094 113.01000213623047,-183.468994140625 C113.01000213623047,-183.468994140625 130.9949951171875,-28.900999069213867 96.81999969482422,88.55000305175781 C89.16999816894531,114.83999633789062 103.14700317382812,197.53700256347656 103.14700317382812,197.53700256347656 C103.14700317382812,197.53700256347656 -117.73899841308594,194.6230010986328 -117.73899841308594,194.6230010986328 C-117.73899841308594,194.6230010986328 -91.56999969482422,-5.302000045776367 -101.42900085449219,-37.59299850463867 C-111.28700256347656,-69.88600158691406 -111.52200317382812,-182.4290008544922 -111.52200317382812,-182.4290008544922 C-111.52200317382812,-182.4290008544922 -110.00900268554688,-182.66600036621094 -61.89500045776367,-190.9810028076172 C-39.45199966430664,-194.86099243164062 -8.288999557495117,-197.5679931640625 14.470999717712402,-197.53700256347656z"/></g><g opacity="1" transform="matrix(1,0,0,1,193.0850067138672,455.12701416015625)"><path fill="rgb(247,164,145)" fill-opacity="1" d=" M-111.0780029296875,-158.8459930419922 C-90.4260025024414,-166.593994140625 -80.3219985961914,19.489999771118164 -77.53800201416016,96.08300018310547 C-40.96500015258789,99.5999984741211 22.780000686645508,96.10900115966797 38.65299987792969,94.91699981689453 C46.11800003051758,94.35600280761719 63.33100128173828,88.052001953125 70.75499725341797,87.08000183105469 C78.36399841308594,86.08399963378906 85.26000213623047,85.56500244140625 89.0009994506836,86.21600341796875 C90.3740005493164,86.4540023803711 128.49400329589844,102.04499816894531 131.75599670410156,105.46399688720703 C135.8000030517578,109.7030029296875 146.73399353027344,120.39700317382812 144.88900756835938,125.02300262451172 C143.04299926757812,129.64700317382812 123.86100006103516,112.13600158691406 123.86100006103516,112.13600158691406 C123.86100006103516,112.13600158691406 114.48600006103516,106.87699890136719 114.48600006103516,106.87699890136719 C126.15699768066406,118.27899932861328 148.41600036621094,133.29299926757812 145.2100067138672,138.76100158691406 C142.08200073242188,144.09300231933594 122.00399780273438,128.8560028076172 107.69200134277344,118.47100067138672 C119.96800231933594,129.55799865722656 135.2169952392578,149.3979949951172 131.7030029296875,152.49000549316406 C128.5449981689453,155.27000427246094 111.1989974975586,132.3000030517578 92.66100311279297,125.68499755859375 C85.79100036621094,123.23500061035156 78.94400024414062,130.0229949951172 73.53900146484375,130.84300231933594 C69.56700134277344,131.44500732421875 63.43600082397461,132.7270050048828 59.540000915527344,131.6219940185547 C59.540000915527344,131.6219940185547 39.46799850463867,125.93000030517578 39.46799850463867,125.93000030517578 C32.630001068115234,126.55000305175781 32.459999084472656,130.59500122070312 25.55500030517578,132.06300354003906 C17.538000106811523,133.7689971923828 4.386000156402588,135.5659942626953 -5.822000026702881,138.06100463867188 C-64.60600280761719,152.4219970703125 -84.21199798583984,159.0919952392578 -102.21099853515625,159.0800018310547 C-156.7259979248047,159.04800415039062 -159.88800048828125,-140.53599548339844 -111.0780029296875,-158.8459930419922z"/></g><g opacity="1" transform="matrix(1,0,0,1,83.9520034790039,376.5360107421875)"><path fill="rgb(140,165,209)" fill-opacity="1" d=" M-41.138999938964844,94.44499969482422 C-45.007999420166016,15.98900032043457 -44.44200134277344,-80.70899963378906 -0.4620000123977661,-97.20700073242188 C16.889999389648438,-103.71600341796875 47.481998443603516,-64.57599639892578 41.98099899291992,96.03800201416016 C18.503000259399414,97.97699737548828 -15.965999603271484,99.53700256347656 -41.138999938964844,94.44499969482422z"/></g><g opacity="1" transform="matrix(1,0,0,1,0,0)"><g opacity="1" transform="matrix(1,0,0,1,218.61399841308594,144.8280029296875)"><path fill="rgb(14,46,53)" fill-opacity="1" d=" M41.35200119018555,-69.62000274658203 C35.06700134277344,-71.73500061035156 28.878000259399414,-74.1259994506836 22.902000427246094,-77.00700378417969 C16.148000717163086,-80.26499938964844 7.394999980926514,-84.08000183105469 1.8669999837875366,-84.93299865722656 C-9.772000312805176,-86.72799682617188 -29.767000198364258,-85.53199768066406 -40.808998107910156,-73.55400085449219 C-54.566001892089844,-58.63199996948242 -79.00900268554688,-70.85800170898438 -74.08499908447266,7.296999931335449 C-68.51200103759766,95.76000213623047 -19.32200050354004,86.0510025024414 -18.128999710083008,84.55400085449219 C-16.934999465942383,83.05799865722656 25.740999221801758,27.95800018310547 25.740999221801758,27.95800018310547 C25.740999221801758,27.95800018310547 40.6619987487793,60.597999572753906 40.6619987487793,59.400001525878906 C40.6619987487793,58.24399948120117 116.85299682617188,-44.19300079345703 41.35200119018555,-69.62000274658203z"/></g><g opacity="1" transform="matrix(1,0,0,1,201.2480010986328,254.39999389648438)"><path fill="rgb(247,164,145)" fill-opacity="1" d=" M21.375999450683594,-18.482999801635742 C21.375999450683594,-18.482999801635742 25.621999740600586,13.125 25.621999740600586,13.125 C25.621999740600586,13.125 35.132999420166016,58.66600036621094 22.895999908447266,67.44599914550781 C10.659000396728516,76.22599792480469 -29.143999099731445,11.82800006866455 -29.143999099731445,11.82800006866455 C-29.143999099731445,11.82800006866455 -24.940000534057617,-68.26799774169922 -24.940000534057617,-68.26799774169922 C-24.940000534057617,-68.26799774169922 21.375999450683594,-18.482999801635742 21.375999450683594,-18.482999801635742z"/></g><g opacity="1" transform="matrix(1,0,0,1,200.58599853515625,224.4239959716797)"><path fill="rgb(244,116,88)" fill-opacity="1" d=" M-25.63800048828125,-12.333999633789062 C-15.529999732971191,14.984999656677246 8.54699993133545,31.777999877929688 25.63800048828125,38.29199981689453 C25.63800048828125,38.29199981689453 22.03700065612793,11.493000030517578 22.03700065612793,11.493000030517578 C22.03700065612793,11.493000030517578 -24.27899932861328,-38.29199981689453 -24.27899932861328,-38.29199981689453 C-24.27899932861328,-38.29199981689453 -25.63800048828125,-12.333999633789062 -25.63800048828125,-12.333999633789062z"/></g><g opacity="1" transform="matrix(1,0,0,1,217.66400146484375,173.25100708007812)"><path fill="rgb(247,164,145)" fill-opacity="1" d=" M2.444000005722046,-74.28199768066406 C28.375999450683594,-78.46800231933594 51.63399887084961,-57.61399841308594 50.986000061035156,-31.6560001373291 C50.70500183105469,-20.371999740600586 49.779998779296875,-6.284999847412109 47.435001373291016,8.888999938964844 C41.797000885009766,45.37699890136719 16.902000427246094,77.51000213623047 0.4399999976158142,74.64099884033203 C-16.020999908447266,71.77100372314453 -57.439998626708984,40.292999267578125 -50.145999908447266,-11.633999824523926 C-45.643001556396484,-43.69200134277344 -24.76799964904785,-69.88999938964844 2.444000005722046,-74.28199768066406z"/></g><g opacity="1" transform="matrix(1,0,0,1,167.10000610351562,165.7519989013672)"><path fill="rgb(247,164,145)" fill-opacity="1" d=" M11.840999603271484,2.062999963760376 C10.451000213623047,10.086999893188477 4.02400016784668,15.668999671936035 -2.515000104904175,14.529000282287598 C-9.053999900817871,13.388999938964844 -13.229000091552734,5.960000038146973 -11.84000015258789,-2.063999891281128 C-10.45199966430664,-10.088000297546387 -4.025000095367432,-15.668999671936035 2.5139999389648438,-14.529000282287598 C9.053000450134277,-13.390999794006348 13.229000091552734,-5.960999965667725 11.840999603271484,2.062999963760376z"/></g><g opacity="1" transform="matrix(1,0,0,1,218.7100067138672,119.24299621582031)"><path fill="rgb(14,46,53)" fill-opacity="1" d=" M-49.095001220703125,31.979999542236328 C-49.095001220703125,31.979999542236328 -29.19300079345703,36.92599868774414 -21.805999755859375,24.12299919128418 C-14.420000076293945,11.322999954223633 11.991000175476074,-16.301000595092773 45.564998626708984,-4.8480000495910645 C79.13899993896484,6.60699987411499 16.020999908447266,-32.696998596191406 13.335000038146973,-32.696998596191406 C10.64900016784668,-32.696998596191406 -21.582000732421875,-32.91999816894531 -21.582000732421875,-32.91999816894531 C-21.582000732421875,-32.91999816894531 -46.42599868774414,-12.482000350952148 -47.32099914550781,-10.237000465393066 C-48.215999603271484,-7.991000175476074 -55.37900161743164,16.488000869750977 -55.37900161743164,16.488000869750977 C-55.37900161743164,16.488000869750977 -49.095001220703125,31.979999542236328 -49.095001220703125,31.979999542236328z"/></g></g><g opacity="1" transform="matrix(1,0,0,1,224.06700134277344,213.78599548339844)"><path fill="rgb(255,255,255)" fill-opacity="1" d=" M-18.038999557495117,-9.154000282287598 C-18.038999557495117,-9.154000282287598 18.176000595092773,-2.2290000915527344 18.176000595092773,-2.2290000915527344 C18.176000595092773,-2.2290000915527344 14.720999717712402,11.411999702453613 -1.2929999828338623,8.82800006866455 C-20.819000244140625,5.678999900817871 -18.038999557495117,-9.154000282287598 -18.038999557495117,-9.154000282287598z"/></g></g></g></g></g></svg>