<svg xmlns="http://www.w3.org/2000/svg" xmlns:xlink="http://www.w3.org/1999/xlink" width="500" zoomAndPan="magnify" viewBox="0 0 375 374.999991" height="500" preserveAspectRatio="xMidYMid meet" version="1.0"><path fill="#10b981" d="M 237.320312 0 L 137.679688 0 C 135.425781 0 133.171875 0.0546875 130.921875 0.164062 C 128.671875 0.277344 126.425781 0.441406 124.183594 0.664062 C 121.941406 0.882812 119.707031 1.160156 117.476562 1.488281 C 115.25 1.820312 113.027344 2.207031 110.820312 2.644531 C 108.609375 3.085938 106.410156 3.578125 104.226562 4.125 C 102.039062 4.671875 99.867188 5.273438 97.710938 5.929688 C 95.554688 6.582031 93.417969 7.289062 91.296875 8.046875 C 89.175781 8.808594 87.074219 9.617188 84.992188 10.480469 C 82.910156 11.34375 80.851562 12.253906 78.8125 13.21875 C 76.777344 14.183594 74.765625 15.195312 72.777344 16.257812 C 70.789062 17.320312 68.832031 18.429688 66.898438 19.585938 C 64.964844 20.746094 63.0625 21.953125 61.1875 23.203125 C 59.316406 24.453125 57.472656 25.75 55.664062 27.09375 C 53.855469 28.4375 52.078125 29.820312 50.335938 31.25 C 48.59375 32.679688 46.890625 34.152344 45.21875 35.664062 C 43.550781 37.179688 41.917969 38.730469 40.324219 40.324219 C 38.730469 41.917969 37.179688 43.550781 35.664062 45.21875 C 34.152344 46.890625 32.679688 48.59375 31.25 50.335938 C 29.820312 52.078125 28.4375 53.855469 27.09375 55.664062 C 25.75 57.472656 24.453125 59.316406 23.203125 61.1875 C 21.953125 63.0625 20.746094 64.964844 19.585938 66.898438 C 18.429688 68.832031 17.320312 70.789062 16.257812 72.777344 C 15.195312 74.765625 14.183594 76.777344 13.21875 78.8125 C 12.253906 80.851562 11.34375 82.910156 10.480469 84.992188 C 9.617188 87.074219 8.808594 89.175781 8.046875 91.296875 C 7.289062 93.417969 6.582031 95.554688 5.929688 97.710938 C 5.273438 99.867188 4.671875 102.039062 4.125 104.226562 C 3.578125 106.410156 3.085938 108.609375 2.644531 110.820312 C 2.207031 113.027344 1.820312 115.25 1.488281 117.476562 C 1.160156 119.707031 0.882812 121.941406 0.664062 124.183594 C 0.441406 126.425781 0.277344 128.671875 0.164062 130.921875 C 0.0546875 133.171875 0 135.425781 0 137.679688 L 0 237.320312 C 0 239.574219 0.0546875 241.828125 0.164062 244.078125 C 0.277344 246.328125 0.441406 248.574219 0.664062 250.816406 C 0.882812 253.058594 1.160156 255.292969 1.488281 257.523438 C 1.820312 259.75 2.207031 261.972656 2.644531 264.179688 C 3.085938 266.390625 3.578125 268.589844 4.125 270.773438 C 4.671875 272.960938 5.273438 275.132812 5.929688 277.289062 C 6.582031 279.445312 7.289062 281.582031 8.046875 283.703125 C 8.808594 285.824219 9.617188 287.925781 10.480469 290.007812 C 11.34375 292.089844 12.253906 294.148438 13.21875 296.1875 C 14.183594 298.222656 15.195312 300.234375 16.257812 302.222656 C 17.320312 304.210938 18.429688 306.167969 19.585938 308.101562 C 20.746094 310.035156 21.949219 311.9375 23.203125 313.8125 C 24.453125 315.683594 25.75 317.527344 27.09375 319.335938 C 28.4375 321.144531 29.820312 322.921875 31.25 324.664062 C 32.679688 326.40625 34.152344 328.109375 35.664062 329.78125 C 37.179688 331.449219 38.730469 333.082031 40.324219 334.675781 C 41.917969 336.269531 43.550781 337.820312 45.21875 339.335938 C 46.890625 340.847656 48.59375 342.320312 50.335938 343.75 C 52.078125 345.179688 53.855469 346.5625 55.664062 347.90625 C 57.472656 349.25 59.316406 350.546875 61.1875 351.796875 C 63.0625 353.046875 64.964844 354.253906 66.898438 355.414062 C 68.832031 356.570312 70.789062 357.679688 72.777344 358.742188 C 74.765625 359.804688 76.777344 360.816406 78.8125 361.78125 C 80.851562 362.746094 82.910156 363.65625 84.992188 364.519531 C 87.074219 365.382812 89.175781 366.191406 91.296875 366.953125 C 93.417969 367.710938 95.554688 368.417969 97.710938 369.070312 C 99.867188 369.726562 102.039062 370.328125 104.226562 370.875 C 106.410156 371.421875 108.609375 371.914062 110.820312 372.355469 C 113.027344 372.792969 115.25 373.179688 117.476562 373.511719 C 119.707031 373.839844 121.941406 374.117188 124.183594 374.335938 C 126.425781 374.558594 128.671875 374.722656 130.921875 374.835938 C 133.171875 374.945312 135.425781 375 137.679688 375 L 237.320312 375 C 239.574219 375 241.828125 374.945312 244.078125 374.835938 C 246.328125 374.722656 248.574219 374.558594 250.816406 374.335938 C 253.058594 374.117188 255.292969 373.839844 257.523438 373.511719 C 259.75 373.179688 261.972656 372.792969 264.179688 372.355469 C 266.390625 371.914062 268.589844 371.421875 270.773438 370.875 C 272.960938 370.328125 275.132812 369.726562 277.289062 369.070312 C 279.445312 368.417969 281.582031 367.710938 283.703125 366.953125 C 285.824219 366.191406 287.925781 365.382812 290.007812 364.519531 C 292.089844 363.65625 294.148438 362.746094 296.1875 361.78125 C 298.222656 360.816406 300.234375 359.804688 302.222656 358.742188 C 304.210938 357.679688 306.167969 356.570312 308.101562 355.414062 C 310.035156 354.253906 311.9375 353.046875 313.8125 351.796875 C 315.683594 350.546875 317.527344 349.25 319.335938 347.90625 C 321.144531 346.5625 322.921875 345.179688 324.664062 343.75 C 326.40625 342.320312 328.109375 340.847656 329.78125 339.335938 C 331.449219 337.820312 333.082031 336.269531 334.675781 334.675781 C 336.269531 333.082031 337.820312 331.449219 339.335938 329.78125 C 340.847656 328.109375 342.320312 326.40625 343.75 324.664062 C 345.179688 322.921875 346.5625 321.144531 347.90625 319.335938 C 349.25 317.527344 350.546875 315.683594 351.796875 313.8125 C 353.046875 311.9375 354.253906 310.035156 355.414062 308.101562 C 356.570312 306.167969 357.679688 304.210938 358.742188 302.222656 C 359.804688 300.234375 360.816406 298.222656 361.78125 296.1875 C 362.746094 294.148438 363.65625 292.089844 364.519531 290.007812 C 365.382812 287.925781 366.191406 285.824219 366.953125 283.703125 C 367.710938 281.582031 368.417969 279.445312 369.070312 277.289062 C 369.726562 275.132812 370.328125 272.960938 370.875 270.773438 C 371.421875 268.589844 371.914062 266.390625 372.355469 264.179688 C 372.792969 261.972656 373.179688 259.75 373.511719 257.523438 C 373.839844 255.292969 374.117188 253.058594 374.335938 250.816406 C 374.558594 248.574219 374.722656 246.328125 374.835938 244.078125 C 374.945312 241.828125 375 239.574219 375 237.320312 L 375 137.679688 C 375 135.425781 374.945312 133.171875 374.835938 130.921875 C 374.722656 128.671875 374.558594 126.425781 374.335938 124.183594 C 374.117188 121.941406 373.839844 119.707031 373.507812 117.476562 C 373.179688 115.25 372.792969 113.027344 372.355469 110.820312 C 371.914062 108.609375 371.421875 106.410156 370.875 104.226562 C 370.328125 102.039062 369.726562 99.867188 369.070312 97.710938 C 368.417969 95.554688 367.710938 93.417969 366.953125 91.296875 C 366.191406 89.175781 365.382812 87.074219 364.519531 84.992188 C 363.65625 82.910156 362.746094 80.851562 361.78125 78.8125 C 360.816406 76.777344 359.804688 74.765625 358.742188 72.777344 C 357.679688 70.789062 356.570312 68.832031 355.414062 66.898438 C 354.253906 64.964844 353.046875 63.0625 351.796875 61.1875 C 350.546875 59.316406 349.25 57.472656 347.90625 55.664062 C 346.5625 53.855469 345.179688 52.078125 343.75 50.335938 C 342.320312 48.59375 340.847656 46.890625 339.335938 45.21875 C 337.820312 43.550781 336.269531 41.917969 334.675781 40.324219 C 333.082031 38.730469 331.449219 37.179688 329.78125 35.664062 C 328.109375 34.152344 326.40625 32.679688 324.664062 31.25 C 322.921875 29.820312 321.144531 28.4375 319.335938 27.09375 C 317.527344 25.75 315.683594 24.453125 313.8125 23.203125 C 311.9375 21.953125 310.035156 20.746094 308.101562 19.585938 C 306.167969 18.429688 304.210938 17.320312 302.222656 16.257812 C 300.234375 15.195312 298.222656 14.183594 296.1875 13.21875 C 294.148438 12.253906 292.089844 11.34375 290.007812 10.480469 C 287.925781 9.617188 285.824219 8.808594 283.703125 8.046875 C 281.582031 7.289062 279.445312 6.582031 277.289062 5.929688 C 275.132812 5.273438 272.960938 4.671875 270.773438 4.125 C 268.589844 3.578125 266.390625 3.085938 264.179688 2.644531 C 261.972656 2.207031 259.75 1.820312 257.523438 1.488281 C 255.292969 1.160156 253.058594 0.882812 250.816406 0.664062 C 248.574219 0.441406 246.328125 0.277344 244.078125 0.164062 C 241.828125 0.0546875 239.574219 0 237.320312 0 Z M 182.746094 294.644531 C 150.269531 292.902344 93.75 265.582031 93.75 198.148438 L 93.75 100.445312 C 93.75 99.789062 93.78125 99.132812 93.847656 98.476562 C 93.910156 97.824219 94.007812 97.171875 94.136719 96.527344 C 94.265625 95.882812 94.425781 95.246094 94.613281 94.613281 C 94.804688 93.984375 95.027344 93.367188 95.277344 92.757812 C 95.53125 92.152344 95.8125 91.558594 96.121094 90.976562 C 96.433594 90.394531 96.769531 89.832031 97.136719 89.285156 C 97.5 88.738281 97.894531 88.210938 98.308594 87.703125 C 98.726562 87.191406 99.167969 86.707031 99.632812 86.242188 C 100.097656 85.777344 100.585938 85.335938 101.09375 84.917969 C 101.601562 84.5 102.132812 84.109375 102.679688 83.742188 C 103.226562 83.378906 103.789062 83.039062 104.371094 82.730469 C 104.949219 82.417969 105.542969 82.136719 106.152344 81.886719 C 106.757812 81.632812 107.378906 81.414062 108.007812 81.222656 C 108.636719 81.03125 109.273438 80.871094 109.921875 80.742188 C 110.566406 80.613281 111.214844 80.519531 111.871094 80.453125 C 112.523438 80.390625 113.179688 80.355469 113.839844 80.355469 L 127.230469 80.355469 C 127.890625 80.355469 128.546875 80.390625 129.203125 80.453125 C 129.855469 80.519531 130.507812 80.613281 131.152344 80.742188 C 131.796875 80.871094 132.433594 81.03125 133.0625 81.222656 C 133.695312 81.414062 134.3125 81.632812 134.921875 81.886719 C 135.527344 82.136719 136.121094 82.417969 136.703125 82.730469 C 137.28125 83.039062 137.847656 83.378906 138.394531 83.742188 C 138.941406 84.109375 139.46875 84.5 139.976562 84.917969 C 140.484375 85.335938 140.972656 85.777344 141.4375 86.242188 C 141.902344 86.707031 142.34375 87.191406 142.761719 87.703125 C 143.179688 88.210938 143.570312 88.738281 143.9375 89.285156 C 144.300781 89.832031 144.640625 90.394531 144.949219 90.976562 C 145.257812 91.558594 145.539062 92.152344 145.792969 92.757812 C 146.042969 93.367188 146.265625 93.984375 146.457031 94.613281 C 146.648438 95.246094 146.808594 95.882812 146.933594 96.527344 C 147.0625 97.171875 147.160156 97.824219 147.226562 98.476562 C 147.289062 99.132812 147.320312 99.789062 147.320312 100.445312 L 147.320312 199.488281 C 147.304688 200.714844 147.339844 201.941406 147.433594 203.167969 C 147.523438 204.394531 147.671875 205.613281 147.871094 206.824219 C 148.074219 208.035156 148.328125 209.238281 148.636719 210.425781 C 148.945312 211.617188 149.308594 212.789062 149.71875 213.945312 C 150.132812 215.105469 150.601562 216.238281 151.117188 217.355469 C 151.632812 218.46875 152.195312 219.558594 152.808594 220.625 C 153.421875 221.691406 154.082031 222.726562 154.789062 223.730469 C 155.496094 224.734375 156.246094 225.707031 157.039062 226.644531 C 157.832031 227.585938 158.667969 228.484375 159.542969 229.347656 C 160.414062 230.210938 161.328125 231.035156 162.273438 231.816406 C 163.222656 232.597656 164.203125 233.335938 165.21875 234.03125 C 166.234375 234.722656 167.277344 235.371094 168.347656 235.972656 C 169.421875 236.570312 170.519531 237.121094 171.640625 237.625 C 172.761719 238.125 173.902344 238.578125 175.066406 238.976562 C 176.226562 239.375 177.40625 239.722656 178.597656 240.015625 C 179.792969 240.3125 180.996094 240.550781 182.210938 240.738281 C 183.453125 240.90625 184.699219 241.015625 185.953125 241.066406 C 187.207031 241.117188 188.460938 241.109375 189.710938 241.042969 C 190.964844 240.976562 192.210938 240.851562 193.453125 240.671875 C 194.695312 240.488281 195.921875 240.246094 197.140625 239.949219 C 198.359375 239.652344 199.5625 239.296875 200.746094 238.886719 C 201.933594 238.476562 203.097656 238.011719 204.238281 237.492188 C 205.378906 236.972656 206.492188 236.398438 207.582031 235.777344 C 208.671875 235.152344 209.726562 234.476562 210.75 233.753906 C 211.777344 233.03125 212.765625 232.261719 213.71875 231.449219 C 214.671875 230.632812 215.585938 229.773438 216.457031 228.871094 C 217.328125 227.972656 218.160156 227.03125 218.941406 226.054688 C 219.726562 225.074219 220.464844 224.0625 221.15625 223.015625 C 221.84375 221.964844 222.484375 220.890625 223.074219 219.78125 C 223.660156 218.675781 224.195312 217.542969 224.679688 216.382812 C 225.164062 215.226562 225.589844 214.046875 225.960938 212.851562 C 226.335938 211.652344 226.652344 210.441406 226.910156 209.214844 C 227.167969 207.984375 227.371094 206.75 227.511719 205.503906 C 227.65625 204.257812 227.738281 203.007812 227.765625 201.753906 C 227.792969 200.5 227.757812 199.246094 227.667969 197.996094 C 227.578125 196.746094 227.425781 195.5 227.21875 194.261719 C 227.011719 193.027344 226.746094 191.800781 226.421875 190.589844 C 226.101562 189.378906 225.722656 188.183594 225.289062 187.007812 C 224.855469 185.828125 224.367188 184.675781 223.824219 183.546875 C 223.28125 182.414062 222.6875 181.3125 222.039062 180.234375 C 221.394531 179.160156 220.699219 178.117188 219.957031 177.109375 C 219.214844 176.097656 218.425781 175.125 217.589844 174.1875 C 216.753906 173.25 215.878906 172.355469 214.960938 171.5 C 214.042969 170.648438 213.085938 169.835938 212.09375 169.074219 C 211.097656 168.308594 210.070312 167.59375 209.007812 166.921875 C 207.945312 166.253906 206.855469 165.636719 205.738281 165.070312 C 204.617188 164.503906 203.476562 163.992188 202.308594 163.53125 C 201.140625 163.074219 199.953125 162.667969 198.75 162.320312 C 197.957031 162.109375 197.1875 161.832031 196.4375 161.492188 C 195.691406 161.15625 194.972656 160.757812 194.289062 160.304688 C 193.605469 159.851562 192.960938 159.34375 192.359375 158.785156 C 191.757812 158.226562 191.203125 157.625 190.699219 156.976562 C 190.195312 156.328125 189.746094 155.640625 189.355469 154.921875 C 188.960938 154.199219 188.628906 153.453125 188.355469 152.675781 C 188.085938 151.902344 187.875 151.109375 187.734375 150.300781 C 187.589844 149.492188 187.511719 148.679688 187.5 147.855469 L 187.5 123.617188 C 187.496094 123.070312 187.523438 122.527344 187.578125 121.988281 C 187.636719 121.445312 187.722656 120.910156 187.835938 120.378906 C 187.953125 119.847656 188.09375 119.320312 188.265625 118.804688 C 188.441406 118.289062 188.640625 117.785156 188.867188 117.289062 C 189.09375 116.792969 189.347656 116.3125 189.628906 115.847656 C 189.910156 115.382812 190.214844 114.929688 190.542969 114.496094 C 190.871094 114.0625 191.222656 113.648438 191.597656 113.253906 C 191.972656 112.859375 192.367188 112.488281 192.78125 112.136719 C 193.199219 111.785156 193.632812 111.457031 194.082031 111.152344 C 194.535156 110.847656 195 110.566406 195.480469 110.316406 C 195.964844 110.0625 196.457031 109.835938 196.964844 109.636719 C 197.472656 109.4375 197.988281 109.265625 198.511719 109.121094 C 199.039062 108.980469 199.570312 108.867188 200.105469 108.78125 C 200.644531 108.695312 201.183594 108.640625 201.726562 108.613281 C 202.273438 108.589844 202.816406 108.59375 203.359375 108.628906 C 203.902344 108.660156 204.441406 108.722656 204.976562 108.816406 C 206.429688 109.082031 207.871094 109.378906 209.308594 109.710938 C 210.746094 110.042969 212.175781 110.410156 213.59375 110.808594 C 215.011719 111.210938 216.421875 111.640625 217.820312 112.109375 C 219.21875 112.574219 220.609375 113.074219 221.984375 113.605469 C 223.359375 114.136719 224.722656 114.699219 226.070312 115.296875 C 227.417969 115.890625 228.753906 116.519531 230.070312 117.179688 C 231.390625 117.835938 232.695312 118.527344 233.980469 119.246094 C 235.269531 119.96875 236.535156 120.71875 237.789062 121.5 C 239.039062 122.277344 240.273438 123.085938 241.484375 123.925781 C 242.699219 124.765625 243.890625 125.632812 245.0625 126.527344 C 246.234375 127.421875 247.386719 128.34375 248.515625 129.292969 C 249.644531 130.238281 250.75 131.214844 251.832031 132.214844 C 252.914062 133.21875 253.972656 134.242188 255.007812 135.292969 C 256.042969 136.347656 257.050781 137.421875 258.035156 138.519531 C 259.019531 139.617188 259.976562 140.738281 260.90625 141.882812 C 261.835938 143.027344 262.738281 144.191406 263.617188 145.378906 C 264.492188 146.566406 265.339844 147.773438 266.15625 149 C 266.976562 150.226562 267.765625 151.46875 268.527344 152.734375 C 269.285156 153.996094 270.015625 155.277344 270.714844 156.578125 C 271.414062 157.875 272.082031 159.1875 272.71875 160.519531 C 273.359375 161.847656 273.964844 163.191406 274.539062 164.550781 C 275.113281 165.910156 275.652344 167.28125 276.164062 168.664062 C 276.671875 170.046875 277.148438 171.441406 277.59375 172.847656 C 278.035156 174.253906 278.445312 175.671875 278.824219 177.097656 C 279.199219 178.523438 279.542969 179.957031 279.851562 181.398438 C 280.160156 182.839844 280.4375 184.289062 280.675781 185.742188 C 280.917969 187.199219 281.125 188.660156 281.296875 190.121094 C 281.46875 191.585938 281.605469 193.054688 281.707031 194.527344 C 281.8125 195.996094 281.878906 197.46875 281.910156 198.945312 C 281.945312 200.417969 281.945312 201.894531 281.90625 203.367188 C 281.871094 204.839844 281.800781 206.3125 281.695312 207.785156 C 281.585938 209.253906 281.445312 210.722656 281.273438 212.1875 C 281.097656 213.652344 280.886719 215.109375 280.644531 216.566406 C 280.398438 218.019531 280.121094 219.46875 279.808594 220.910156 C 279.496094 222.351562 279.148438 223.78125 278.769531 225.207031 C 278.390625 226.632812 277.976562 228.046875 277.53125 229.453125 C 277.082031 230.859375 276.601562 232.253906 276.089844 233.636719 C 275.578125 235.019531 275.035156 236.386719 274.457031 237.746094 C 273.878906 239.101562 273.269531 240.445312 272.628906 241.773438 C 271.988281 243.101562 271.316406 244.414062 270.613281 245.710938 C 269.914062 247.007812 269.179688 248.285156 268.417969 249.546875 C 267.652344 250.808594 266.863281 252.054688 266.039062 253.277344 C 265.21875 254.503906 264.367188 255.707031 263.492188 256.890625 C 262.613281 258.078125 261.707031 259.238281 260.773438 260.382812 C 259.839844 261.523438 258.878906 262.640625 257.894531 263.738281 C 256.90625 264.835938 255.898438 265.90625 254.859375 266.957031 C 253.824219 268.003906 252.761719 269.03125 251.675781 270.027344 C 250.59375 271.027344 249.484375 272 248.351562 272.945312 C 247.222656 273.890625 246.070312 274.8125 244.894531 275.703125 C 243.722656 276.59375 242.527344 277.460938 241.3125 278.296875 C 240.097656 279.128906 238.863281 279.9375 237.609375 280.714844 C 236.355469 281.492188 235.085938 282.238281 233.796875 282.957031 C 232.507812 283.675781 231.203125 284.359375 229.882812 285.015625 C 228.5625 285.671875 227.226562 286.296875 225.878906 286.890625 C 224.527344 287.484375 223.164062 288.042969 221.785156 288.574219 C 220.410156 289.101562 219.023438 289.597656 217.621094 290.058594 C 216.222656 290.523438 214.8125 290.953125 213.390625 291.347656 C 211.96875 291.746094 210.542969 292.109375 209.105469 292.4375 C 207.667969 292.765625 206.222656 293.0625 204.769531 293.320312 C 203.320312 293.582031 201.863281 293.808594 200.402344 294 C 198.9375 294.195312 197.472656 294.351562 196.003906 294.472656 C 194.535156 294.597656 193.0625 294.683594 191.589844 294.738281 C 190.113281 294.792969 188.640625 294.8125 187.164062 294.796875 C 185.691406 294.777344 184.21875 294.726562 182.746094 294.644531 Z M 182.746094 294.644531 " fill-opacity="1" fill-rule="nonzero"/></svg>